# xmcd
#
# Track frame offsets:
#	150
#	20187
#	39400
#	58875
#	84850
#	105487
#	120350
#	140550
#	158525
#	179187
#	200525
#	218337
#
# Disc length: 3160 seconds
# Revision: 4
# Processed by: cddbd v1.5.2PL0 Copyright (c) Steve Scherf et al.
# Submitted via: dBpowerAMP V12.0
#
DISCID=9f0c560c
DTITLE=松田聖子 - Love Ballade ＜リマスター＞[dBS+a]
DYEAR=1986
DGENRE=Japanese Pop
TTITLE0=瑠璃色の地球
TTITLE1=Crazy Me, Crazy For You
TTITLE2=赤い靴のバレリーナ
TTITLE3=Sleeping Beauty
TTITLE4=ブルージュの鐘
TTITLE5=Sweet Memories ［Cinema Version］
TTITLE6=時間旅行
TTITLE7=ガラスの林檎
TTITLE8=December Morning
TTITLE9=真冬の恋人たち
TTITLE10=星のファンタジー
TTITLE11=Try Gettin' Over You
EXTD=
EXTT0=
EXTT1=
EXTT2=
EXTT3=
EXTT4=
EXTT5=
EXTT6=
EXTT7=
EXTT8=
EXTT9=
EXTT10=
EXTT11=
PLAYORDER=
